<?xml version="1.0" encoding="iso-8859-1"?>
<!-- Uploaded to: SVG Repo, www.svgrepo.com, Generator: SVG Repo Mixer Tools -->
<svg height="800px" width="800px" version="1.1" id="Layer_1" xmlns="http://www.w3.org/2000/svg" xmlns:xlink="http://www.w3.org/1999/xlink" 
	 viewBox="0 0 512 512" xml:space="preserve">
<path style="fill:#D8143A;" d="M488.727,117.199h-41.568c-3.401,8.535-8.414,16.413-14.876,23.273
	c-0.515,0.548-1.022,1.098-1.556,1.632c-13.942,13.948-32.503,21.633-52.263,21.641c-0.009,0-0.026,0.002-0.028,0.002l-0.113-0.002
	h-0.003l-0.568-0.005h-65.565l0.005,0.005l46.815,46.814c9.087,9.087,9.089,23.824,0,32.912c-4.544,4.546-10.501,6.819-16.455,6.819
	s-11.913-2.273-16.455-6.817l-70.076-70.071l0,0l70.076,70.071L256,173.379l-70.096,70.093c-4.544,4.544-10.502,6.817-16.455,6.817
	c-1.489,0-2.977-0.143-4.445-0.425c-0.734-0.143-1.462-0.32-2.181-0.534c-3.598-1.066-6.99-3.018-9.83-5.859
	c-1.704-1.704-3.089-3.607-4.153-5.634c-0.355-0.676-0.675-1.365-0.959-2.065c-0.568-1.401-0.995-2.845-1.278-4.313
	c-0.852-4.4-0.425-9,1.278-13.202c1.136-2.802,2.841-5.427,5.112-7.699l46.815-46.814l0.003-0.002l-45.838,0.002l-20.406,0.002
	c0,0-0.022-0.002-0.033-0.002c-19.76-0.008-38.322-7.692-52.269-21.644c-0.534-0.534-1.035-1.085-1.548-1.629
	c-0.818-0.869-1.612-1.752-2.38-2.65c-1.536-1.797-2.974-3.649-4.312-5.55c-1.337-1.902-2.574-3.852-3.711-5.845
	c-1.137-1.994-2.174-4.028-3.111-6.099c-0.469-1.035-0.911-2.079-1.33-3.131H23.273C10.42,117.199,0,127.619,0,140.472v199.48
	v132.985c0,12.854,10.42,23.273,23.273,23.273H256.02h232.707c12.853,0,23.273-10.418,23.273-23.273V339.952v-199.48
	C512,127.619,501.58,117.199,488.727,117.199z"/>
<path style="fill:#E69629;" d="M81.265,142.101c13.947,13.951,32.509,21.636,52.269,21.644c0.011,0,0.033,0.002,0.033,0.002
	l20.406-0.002l45.838-0.002l-0.003,0.002l-46.815,46.814c-9.087,9.087-9.089,23.824,0,32.912c4.544,4.546,10.501,6.819,16.455,6.819
	c5.955,0,11.913-2.273,16.455-6.817L256,173.379l70.096,70.093c4.544,4.544,10.501,6.817,16.457,6.817
	c5.956,0,11.913-2.273,16.455-6.819c9.089-9.087,9.087-23.824,0-32.912l-46.815-46.814l-0.005-0.005h65.565l0.568,0.005l0.116,0.002
	c0.002,0,0.019-0.002,0.028-0.002c19.759-0.008,38.319-7.692,52.263-21.641c0.534-0.534,1.041-1.085,1.556-1.632
	c6.462-6.859,11.475-14.738,14.876-23.273c3.43-8.608,5.243-17.869,5.243-27.414c0-19.76-7.695-38.343-21.672-52.322
	c-13.976-13.976-32.555-21.673-52.319-21.673c-19.763,0-38.344,7.697-52.317,21.673L256,107.555l-70.094-70.091
	c-13.974-13.976-32.555-21.673-52.317-21.673s-38.341,7.699-52.323,21.676C59.75,58.989,54.294,90.569,64.873,117.199
	c3.342,8.414,8.298,16.324,14.842,23.273C80.23,141.016,80.732,141.567,81.265,142.101z M359.01,70.376
	c5.184-5.185,12.074-8.04,19.403-8.04c7.329,0,14.22,2.855,19.403,8.04c5.187,5.185,8.042,12.079,8.042,19.409
	s-2.855,14.221-8.043,19.406c-5.157,5.16-12.034,8.003-19.363,8.007c-0.005,0-0.009,0.002-0.009,0.002h-0.006l0,0l-0.123-0.002
	l-0.247-0.002c-0.102-0.002-0.206-0.003-0.309-0.003h-65.57L359.01,70.376z M114.179,70.377c5.187-5.187,12.08-8.042,19.411-8.042
	c7.328,0,14.218,2.855,19.403,8.042l46.822,46.817h-65.57c-0.102,0-0.206,0.002-0.309,0.003l-0.247,0.002l-0.123,0.002l0,0h-0.005
	c0,0-0.006-0.002-0.011-0.002c-7.332-0.005-14.21-2.847-19.371-8.01C103.48,98.491,103.481,81.08,114.179,70.377z"/>
<g>
	<polygon style="fill:#D8143A;" points="133.567,117.201 133.689,117.199 133.551,117.199 	"/>
	<polygon style="fill:#D8143A;" points="133.562,117.201 133.567,117.201 133.551,117.199 	"/>
	<polygon style="fill:#D8143A;" points="378.435,117.201 378.45,117.199 378.312,117.199 	"/>
	<polygon style="fill:#D8143A;" points="378.435,117.201 378.435,117.201 378.312,117.199 	"/>
</g>
<g>
	<path style="fill:#FFA733;" d="M23.273,363.224h23.273H256.02v-46.545H46.545H23.273C10.42,316.679,0,327.1,0,339.952
		C0,352.808,10.42,363.224,23.273,363.224z"/>
	<path style="fill:#FFA733;" d="M488.727,316.679h-23.273H256.02v46.545h209.434h23.273c12.853,0,23.273-10.418,23.273-23.273
		C512,327.1,501.58,316.679,488.727,316.679z"/>
</g>
<path style="fill:#B8002B;" d="M0,339.952c0-12.851,10.42-23.273,23.273-23.273h23.273H256.02V173.4l-0.02-0.02l-70.096,70.093
	c-4.544,4.544-10.502,6.817-16.455,6.817c-5.956,0-11.913-2.273-16.455-6.819c-9.089-9.087-9.087-23.824,0-32.912l46.815-46.814
	l0.003-0.002l-45.838,0.002l-20.406,0.002l0,0h-0.011c0,0-0.011-0.002-0.022-0.002c-19.76-0.008-38.322-7.692-52.269-21.644
	c-0.534-0.534-1.035-1.085-1.548-1.629c-6.546-6.949-11.5-14.859-14.842-23.273H23.273C10.42,117.199,0,127.619,0,140.472V339.952z"
	/>
<path style="fill:#B4002B;" d="M133.556,163.746h0.011c0,0-0.022-0.002-0.033-0.002
	C133.545,163.745,133.556,163.746,133.556,163.746z"/>
<polygon style="fill:#D8143A;" points="378.438,163.746 378.321,163.745 378.435,163.746 "/>
<path style="fill:#B8002B;" d="M46.545,363.224H23.273C10.42,363.224,0,352.806,0,339.952v132.985
	c0,12.854,10.42,23.273,23.273,23.273H256.02V363.224H46.545z"/>
</svg>